<?xml version="1.0" encoding="utf-8"?>
<!-- Generator: Adobe Illustrator 26.2.1, SVG Export Plug-In . SVG Version: 6.00 Build 0)  -->
<svg version="1.1" id="Layer_1" xmlns="http://www.w3.org/2000/svg" xmlns:xlink="http://www.w3.org/1999/xlink" x="0px" y="0px"
	 viewBox="0 0 64 64" style="enable-background:new 0 0 64 64;" xml:space="preserve">
<style type="text/css">
	.st0{fill:#FFCD00;stroke:#000000;stroke-miterlimit:10;}
</style>
<circle class="st0" cx="31.8" cy="31.5" r="20.5"/>
<g>
	<path d="M59,32C59,17.1,46.9,5,32,5S5,17.1,5,32c0,10.7,6.2,19.9,15.3,24.3l-6,6l1.4,1.4l6.5-6.5c3,1.2,6.3,1.8,9.8,1.8
		s6.7-0.7,9.8-1.8l6.5,6.5l1.4-1.4l-6-6C52.8,51.9,59,42.7,59,32z M32,57C18.2,57,7,45.8,7,32S18.2,7,32,7s25,11.2,25,25
		S45.8,57,32,57z"/>
	<polygon points="33,20 31,20 31,32.6 39.6,36.9 40.4,35.1 33,31.4 	"/>
	<path d="M-0.1,7.7L2.4,20L17,5.4L4.7,2.9L-0.1,7.7z M13,6.6L3.6,16L2.1,8.3l3.2-3.2L13,6.6z"/>
	<path d="M47,5.4L61.6,20l2.5-12.4l-4.8-4.8L47,5.4z M60.4,16L51,6.6l7.6-1.5l3.2,3.2L60.4,16z"/>
</g>
</svg>
