<?xml version="1.0" encoding="utf-8"?>
<!-- Generator: Adobe Illustrator 26.2.1, SVG Export Plug-In . SVG Version: 6.00 Build 0)  -->
<svg version="1.1" id="Layer_1" xmlns="http://www.w3.org/2000/svg" xmlns:xlink="http://www.w3.org/1999/xlink" x="0px" y="0px"
	 viewBox="0 0 64 64" style="enable-background:new 0 0 64 64;" xml:space="preserve">
<style type="text/css">
	.st0{fill:#FFCD00;}
</style>
<rect x="4.6" y="5.6" class="st0" width="26.4" height="26.4"/>
<g>
	<path d="M0,64h64V0H0V64z M2,2h60v60H2V2z"/>
	<polygon points="19,8 17,8 17,17 8,17 8,19 17,19 17,28 19,28 19,19 28,19 28,17 19,17 	"/>
	<rect x="36" y="17" width="20" height="2"/>
	<polygon points="25.3,37.3 18,44.6 10.7,37.3 9.3,38.7 16.6,46 9.3,53.3 10.7,54.7 18,47.4 25.3,54.7 26.7,53.3 19.4,46 26.7,38.7 
			"/>
	<rect x="36" y="42" width="20" height="2"/>
	<rect x="36" y="48" width="20" height="2"/>
</g>
</svg>
